<svg width="162" height="26" xmlns="http://www.w3.org/2000/svg" xmlns:xlink="http://www.w3.org/1999/xlink"><defs><path id="a" d="M0 0h35.367v25.488H0z"/></defs><g transform="translate(.633)" fill="none" fill-rule="evenodd"><path d="M161.367 20.664v4.11c-.543.316-2.52.71-4.207.71-4.066 0-6.555-2.265-6.555-7.48V2.492l4.989-.004v4.664h4.855v3.907h-4.855v6.882c0 2.497.906 3.286 2.683 3.286 1.223 0 2.446-.325 3.09-.563zm-23.12-13.613C138.25 2.21 140.843 0 144.991 0c1.395 0 2.79.266 3.465.453l.004 3.942a7.738 7.738 0 0 0-2.66-.457c-1.692 0-2.563.914-2.567 3.113v.101h4.215l-.004 3.907h-4.21v14.066h-4.989V7.051zm-18.892 9.09c0-6.489 2.493-9.352 8.204-9.352 5.71 0 8.199 2.863 8.199 9.352 0 6.484-2.488 9.347-8.2 9.347-5.71 0-8.203-2.863-8.203-9.347zm11.352 0c0-3.805-.848-5.149-3.148-5.149-2.301 0-3.153 1.344-3.153 5.149 0 3.8.852 5.148 3.153 5.148 2.3 0 3.148-1.348 3.148-5.148zm-27.59 8.37l.004-4.331c1.23.547 3.887 1.25 6.54 1.25 2.452 0 3.269-.649 3.269-1.535 0-.88-.328-1.262-1.989-1.582l-2.804-.555c-3.535-.711-4.875-2.317-4.875-5.383 0-3.496 2.41-5.574 7.629-5.574 2.425 0 4.91.488 5.93.832l.003 4.207c-.918-.418-3.015-.985-5.465-.985-2.492 0-3.3.532-3.3 1.38 0 .828.39 1.21 2.062 1.538l2.68.52c3.59.727 4.949 2.285 4.949 5.508 0 3.633-2.348 5.676-7.84 5.676-2.465 0-5.64-.54-6.793-.965zm-18.066-4.683c0-3.344 2.219-5.34 6.308-5.34h4.395v-.734c0-1.934-.875-2.707-3.563-2.707-2.082 0-4.476.406-5.71.734V7.5c1.09-.25 4.199-.613 6.656-.613 5.375 0 7.558 2.523 7.558 6.879v11.359h-4.941v-1.848c-.719 1.41-2.242 2.211-4.813 2.211-3.855 0-5.89-2.152-5.89-5.66zm10.703-1.176v-1.015h-3.43c-1.691 0-2.426.722-2.426 2.039 0 1.347.747 2.058 2.426 2.058 2.383 0 3.43-.714 3.43-3.082zm-12.942-5.129v11.602h-4.988V14.719c0-2.364-.75-3.676-2.8-3.676-2.215 0-3.032 1.312-3.032 3.676v10.406h-4.984V14.719c0-2.364-.723-3.676-2.801-3.676-2.238 0-3.031 1.312-3.031 3.676v10.406H56.19V7.152h4.989l-.004 1.934c1.039-1.399 2.457-2.297 4.808-2.297 2.32 0 4.004.953 4.922 2.59 1.438-1.73 3.125-2.59 5.633-2.59 4.203 0 6.273 2.797 6.273 6.734zm-45.296 6.305c0-3.344 2.218-5.34 6.308-5.34h4.39v-.734c0-1.934-.87-2.707-3.558-2.707-2.086 0-4.476.406-5.71.734V7.5c1.085-.254 4.199-.613 6.652-.613 5.379 0 7.562 2.523 7.562 6.879v11.359h-4.945v-1.848c-.715 1.41-2.238 2.211-4.809 2.211-3.855 0-5.89-2.152-5.89-5.66zm10.699-1.176v-1.015h-3.43c-1.687 0-2.426.722-2.426 2.039 0 1.347.75 2.058 2.426 2.058 2.387 0 3.43-.714 3.43-3.082z" fill="#959697" fill-rule="nonzero"/><mask id="b" fill="#fff"><use xlink:href="#a"/></mask><path fill="#17AD49" fill-rule="nonzero" mask="url(#b)" d="M18.613 25.125h15.852v-4.754H23.98V.54h-5.367zm-13.246 0h10.488v-4.754H0V.54h5.367z"/></g></svg>