<svg id="logosandtypes_com" xmlns="http://www.w3.org/2000/svg" viewBox="0 0 150 150"><style>.st1{fill:#006aff}</style><path d="M0 0h150v150H0V0z" fill="none" id="Layer_3"/><g id="zillow"><path class="st1" d="M94.3 42.5c.6-.1.8.1 1.1.4 1.9 2.1 7.9 9.5 9.6 11.5.3.4.1.8-.2 1C92.6 65 79 78.5 71.5 88.1c-.2.2 0 .2.1.2 13.2-5.7 44.2-14.8 58.2-17.3V53.3L75.1 10.1 20.3 53.3v19.4c16.9-10.1 56.2-25.8 74-30.2z"/><path class="st1" d="M49.8 116.9c-.5.2-.8.2-1.2-.2l-10.2-12.2c-.3-.3-.3-.5.1-1 7.9-11.6 24-29.6 34.3-37.2.2-.1.1-.3-.1-.2C61.9 69.6 31.5 82.7 20.3 89v41.3h109.5V90.6c-15 2.5-59.7 15.8-80 26.3z"/></g></svg>